<?xml version="1.0" standalone="no"?>
<!DOCTYPE svg PUBLIC "-//W3C//DTD SVG 20010904//EN"
 "http://www.w3.org/TR/2001/REC-SVG-20010904/DTD/svg10.dtd">
<svg version="1.0" xmlns="http://www.w3.org/2000/svg"
 width="820.000000pt" height="862.000000pt" viewBox="0 0 820.000000 862.000000"
 preserveAspectRatio="xMidYMid meet">
<metadata>
Created by potrace 1.15, written by Peter Selinger 2001-2017
</metadata>
<g transform="translate(0.000000,862.000000) scale(0.100000,-0.100000)"
fill="#000000" stroke="none">
<path d="M7030 8210 c-67 -11 -148 -40 -212 -77 -26 -16 -149 -129 -274 -252
l-226 -224 606 -606 606 -606 234 235 c253 255 276 287 312 430 34 136 4 316
-74 437 -17 26 -149 166 -294 309 -213 212 -274 267 -324 292 -113 57 -242 79
-354 62z"/>
<path d="M540 7625 c-115 -28 -215 -88 -293 -175 -62 -69 -122 -191 -136 -277
-9 -50 -11 -922 -9 -3288 l3 -3220 23 -67 c66 -196 241 -348 442 -384 113 -20
6389 -20 6503 1 167 29 321 142 399 290 73 141 68 -36 68 2234 l0 2041 -285 0
-285 0 0 -2000 0 -2000 -3160 0 -3160 0 2 3153 3 3152 2013 3 2012 2 0 275 0
275 -2042 -1 c-1679 -1 -2053 -3 -2098 -14z"/>
<path d="M4482 5827 l-1402 -1402 608 -608 607 -607 1410 1410 1410 1410 -600
600 c-330 330 -607 600 -615 600 -8 0 -646 -631 -1418 -1403z"/>
<path d="M2639 3988 c-8 -14 -29 -50 -47 -79 -51 -86 -74 -156 -79 -249 -4
-76 -25 -148 -185 -650 -98 -311 -197 -619 -218 -684 -22 -66 -38 -121 -37
-123 3 -3 302 92 972 307 332 107 392 123 475 130 103 8 186 33 256 77 25 15
58 35 74 43 16 8 30 17 30 20 0 3 -276 281 -614 619 -608 608 -614 613 -627
589z"/>
</g>
</svg>
